<?xml version="1.0" encoding="utf-8"?>
<!-- Generator: Adobe Illustrator 23.0.2, SVG Export Plug-In . SVG Version: 6.00 Build 0)  -->
<svg version="1.1" id="Capa_1" xmlns="http://www.w3.org/2000/svg" xmlns:xlink="http://www.w3.org/1999/xlink" x="0px" y="0px"
	 viewBox="0 0 500 119.5" style="enable-background:new 0 0 500 119.5;" xml:space="preserve">
<style type="text/css">
	.st0{fill:#FFFFFF;}
</style>
<g>
	<g>
		<g>
			<path class="st0" d="M135.7,72.5h-14.6v15.1h-9.7V36.2c8.1,0,16.2-0.1,24.2-0.1C160.8,36.1,160.9,72.5,135.7,72.5z M121.2,63.6
				h14.6c12.4,0,12.4-18.2,0-18.2h-14.6V63.6z"/>
			<path class="st0" d="M169.4,36.3v51.4h-8.9V36.3H169.4z"/>
			<path class="st0" d="M205.9,51.4h8.6v36.2h-8.5l-0.5-5.3c-2.1,4.3-7.7,6.3-11.8,6.4c-10.7,0.1-18.6-6.6-18.6-19.2
				c0-12.5,8.3-19,18.8-18.9c4.9,0,9.5,2.3,11.5,5.9L205.9,51.4z M184.2,69.5c0,6.9,4.8,11,10.7,11c14.1,0,14.1-22,0-22
				C189,58.5,184.2,62.6,184.2,69.5z"/>
			<path class="st0" d="M253.9,83c-4.2,4.1-8.6,5.7-14,5.7c-10.5,0-19.2-6.3-19.2-19.2s8.8-19.2,19.2-19.2c5.1,0,9.1,1.4,13,5.3
				l-5.6,6c-2.1-1.9-4.8-2.9-7.2-2.9c-6,0-10.5,4.4-10.5,10.7c0,6.9,4.7,10.6,10.3,10.6c2.9,0,5.7-0.8,7.9-3L253.9,83z"/>
			<path class="st0" d="M267,72.7c0.6,4.5,4.5,7.7,10.8,7.7c3.3,0,7.6-1.2,9.7-3.4l5.7,5.6c-3.8,4-10.1,5.9-15.6,5.9
				c-12.5,0-19.9-7.7-19.9-19.3c0-11,7.5-18.9,19.2-18.9c12.1,0,19.7,7.5,18.3,22.4H267L267,72.7L267,72.7z M286.7,65.3
				c-0.6-4.7-4.3-7-9.4-7c-4.9,0-8.8,2.4-10.1,7H286.7z"/>
			<g>
				<g>
					<path class="st0" d="M313.3,41.2v10.3h10v7.7h-10.1v15.6c0,3.4,1.9,5.1,4.7,5.1c1.4,0,3-0.5,4.3-1.1l2.5,7.6
						c-2.6,1-4.7,1.4-7.4,1.5c-7.9,0.3-13-4.2-13-13.2V59.2h-6.8v-7.7h6.8v-9.4L313.3,41.2z"/>
				</g>
			</g>
			<g>
				<g>
					<path class="st0" d="M365.9,69.5c0,10.5-7.1,18.8-18.8,18.8s-18.8-8.5-18.8-18.8s7.2-18.8,18.7-18.8
						C358.5,50.7,365.9,59.2,365.9,69.5z M337.2,69.5c0,5.5,3.3,10.7,9.8,10.7s9.8-5.1,9.8-10.7c0-5.4-3.8-10.7-9.8-10.7
						C340.5,58.8,337.2,64.1,337.2,69.5z"/>
				</g>
			</g>
			<path class="st0" d="M396.9,72.5h-14.5v15.1h-9.7V36.2c8.1,0,16.2-0.1,24.2-0.1C422.1,36.1,422.1,72.5,396.9,72.5z M382.4,63.6
				h14.5c12.4,0,12.4-18.2,0-18.2h-14.5L382.4,63.6L382.4,63.6z"/>
			<path class="st0" d="M448.9,51.4h8.6v36.2h-8.5l-0.5-5.3c-2.1,4.3-7.7,6.3-11.8,6.4c-10.7,0.1-18.6-6.6-18.6-19.2
				c0-12.5,8.3-19,18.8-18.9c4.8,0,9.5,2.3,11.5,5.9L448.9,51.4z M427.2,69.5c0,6.9,4.8,11,10.7,11c14.1,0,14.1-22,0-22
				C431.9,58.5,427.2,62.6,427.2,69.5z"/>
			<path class="st0" d="M500,51.4l-22.1,51.4H468l6.8-15.7l-14.5-35.6h10.5l5.5,15.6l3.4,10.2l3.7-10l6.6-15.9L500,51.4L500,51.4z"
				/>
		</g>
	</g>
	<g>
		<path class="st0" d="M5.3,119.5c-0.9,0-1.8-0.2-2.6-0.7c-1.6-0.9-2.6-2.7-2.6-4.6V87c0-1.9,1-3.6,2.6-4.6L42,59.8L10.6,41.6v23
			c0,2.9-2.4,5.3-5.3,5.3S0,67.5,0,64.6V32.5c0-1.9,1-3.6,2.6-4.6c1.6-0.9,3.6-0.9,5.3,0l47.2,27.2c1.6,0.9,2.6,2.7,2.6,4.6
			c0,1.9-1,3.6-2.6,4.6L10.6,90.1v15.1l67.2-38.8c2.4-1.4,3.8-3.8,3.8-6.6s-1.4-5.2-3.8-6.6L2.6,9.8C0.2,8.3-0.7,5.1,0.7,2.6
			c1.4-2.4,4.7-3.4,7.2-1.9l75.2,43.4c5.6,3.3,9.1,9.2,9.1,15.6s-3.4,12.4-9.1,15.6L7.9,118.8C7.1,119.3,6.2,119.5,5.3,119.5z"/>
	</g>
</g>
</svg>
